<mxfile host="65bd71144e">
    <diagram id="zsAWPJjoBiFLiNPUol7d" name="페이지-1">
        <mxGraphModel dx="1108" dy="790" grid="1" gridSize="10" guides="1" tooltips="1" connect="1" arrows="1" fold="1" page="1" pageScale="1" pageWidth="1169" pageHeight="827" math="0" shadow="0">
            <root>
                <mxCell id="0"/>
                <mxCell id="1" parent="0"/>
                <mxCell id="31" value="KoreanBobtail" style="html=1;" parent="1" vertex="1">
                    <mxGeometry x="340" y="364" width="110" height="50" as="geometry"/>
                </mxCell>
                <mxCell id="32" value="Cat" style="html=1;" parent="1" vertex="1">
                    <mxGeometry x="340" y="240" width="110" height="50" as="geometry"/>
                </mxCell>
                <mxCell id="33" value="&lt;i&gt;Animal&lt;/i&gt;" style="html=1;" parent="1" vertex="1">
                    <mxGeometry x="340" y="110" width="110" height="50" as="geometry"/>
                </mxCell>
                <mxCell id="34" value="Extends" style="endArrow=block;endSize=16;endFill=0;html=1;" parent="1" source="32" target="33" edge="1">
                    <mxGeometry width="160" relative="1" as="geometry">
                        <mxPoint x="480" y="400" as="sourcePoint"/>
                        <mxPoint x="640" y="400" as="targetPoint"/>
                    </mxGeometry>
                </mxCell>
                <mxCell id="35" value="Extends" style="endArrow=block;endSize=16;endFill=0;html=1;" parent="1" source="31" target="32" edge="1">
                    <mxGeometry width="160" relative="1" as="geometry">
                        <mxPoint x="480" y="400" as="sourcePoint"/>
                        <mxPoint x="640" y="400" as="targetPoint"/>
                    </mxGeometry>
                </mxCell>
                <mxCell id="36" value="Object" style="html=1;" vertex="1" parent="1">
                    <mxGeometry x="340" width="110" height="50" as="geometry"/>
                </mxCell>
                <mxCell id="37" value="Extends" style="endArrow=block;endSize=16;endFill=0;html=1;" edge="1" parent="1" source="33" target="36">
                    <mxGeometry width="160" relative="1" as="geometry">
                        <mxPoint x="405" y="250" as="sourcePoint"/>
                        <mxPoint x="405" y="170" as="targetPoint"/>
                    </mxGeometry>
                </mxCell>
            </root>
        </mxGraphModel>
    </diagram>
</mxfile>
